<svg xmlns="http://www.w3.org/2000/svg" viewBox="0 0 512 512">
  <rect width="512" height="512" fill="#1a1a1a"/>
  <path d="M256 160c-52.9 0-96 43.1-96 96s43.1 96 96 96 96-43.1 96-96-43.1-96-96-96zm0 160c-35.3 0-64-28.7-64-64s28.7-64 64-64 64 28.7 64 64-28.7 64-64 64z" fill="#f59e0b"/>
  <path d="M416.3 256c0-21-3.6-41.1-10.2-60l50.4-37.8c4.6-3.4 5.8-9.8 2.8-14.8l-48-83.1c-2.9-5.1-9.2-6.9-14.3-4.1l-59.4 23.9c-19.8-15.3-42.5-27.1-67.2-34.5L261.6 22c-1.1-5.6-6-9.8-11.8-9.8h-96c-5.8 0-10.7 4.2-11.8 9.8l-9 63.6c-24.7 7.4-47.4 19.2-67.2 34.5l-59.4-23.9c-5.1-2.8-11.4-1-14.3 4.1l-48 83.1c-3 5-1.8 11.4 2.8 14.8l50.4 37.8c-6.6 18.9-10.2 39-10.2 60s3.6 41.1 10.2 60l-50.4 37.8c-4.6 3.4-5.8 9.8-2.8 14.8l48 83.1c2.9 5.1 9.2 6.9 14.3 4.1l59.4-23.9c19.8 15.3 42.5 27.1 67.2 34.5l9 63.6c1.1 5.6 6 9.8 11.8 9.8h96c5.8 0 10.7-4.2 11.8-9.8l9-63.6c24.7-7.4 47.4-19.2 67.2-34.5l59.4 23.9c5.1 2.8 11.4 1 14.3-4.1l48-83.1c3-5 1.8-11.4-2.8-14.8l-50.4-37.8c6.6-18.9 10.2-39 10.2-60zM256 384c-70.7 0-128-57.3-128-128s57.3-128 128-128 128 57.3 128 128-57.3 128-128 128z" fill="#f59e0b"/>
  <path d="M368.5 176.5c-4.7-4.7-12.3-4.7-17 0L224 304l-55.5-55.5c-4.7-4.7-12.3-4.7-17 0s-4.7 12.3 0 17l64 64c2.3 2.3 5.3 3.5 8.5 3.5s6.2-1.2 8.5-3.5l136-136c4.7-4.7 4.7-12.3 0-17z" fill="#ffffff"/>
</svg>
